<svg width="87" height="28" viewBox="0 0 87 28" fill="none" xmlns="http://www.w3.org/2000/svg">
<path d="M2.01655 27.1813C2.1167 27.7245 2.63818 28.0836 3.18131 27.9834L12.0321 26.3514C12.5752 26.2512 12.9343 25.7297 12.8342 25.1866C12.734 24.6435 12.2125 24.2844 11.6694 24.3845L3.80205 25.8352L2.35135 17.9679C2.2512 17.4247 1.72972 17.0656 1.18659 17.1658C0.643459 17.2659 0.284355 17.7874 0.384505 18.3306L2.01655 27.1813ZM86.4757 9.24242C65.4194 -2.14685 46.9552 -1.69743 32.4321 3.55561C17.9511 8.79347 7.4429 18.7849 2.17636 26.4328L3.82358 27.5672C8.88826 20.2124 19.0775 10.5128 33.1124 5.43636C47.1053 0.375068 64.9754 -0.113179 85.5242 11.0016L86.4757 9.24242Z" fill="black"/>
</svg>
