<svg width="57" height="38" viewBox="0 0 57 38" fill="none" xmlns="http://www.w3.org/2000/svg">
<path d="M52.9065 37.422C52.6733 37.9227 52.0784 38.1395 51.5778 37.9063L43.4193 34.1065C42.9186 33.8733 42.7018 33.2784 42.935 32.7777C43.1682 32.2771 43.763 32.0603 44.2637 32.2935L51.5157 35.6711L54.8933 28.4191C55.1265 27.9185 55.7214 27.7017 56.2221 27.9348C56.7227 28.168 56.9395 28.7629 56.7063 29.2636L52.9065 37.422ZM0.285236 9.30041C6.55763 2.89048 12.6803 0.225756 18.4818 0.276088C24.261 0.326227 29.5185 3.0697 34.0817 7.05907C43.1832 15.0159 49.8656 28.2236 52.9395 36.6574L51.0604 37.3423C48.0352 29.0423 41.4986 16.1997 32.7654 8.56479C28.4113 4.75828 23.5974 2.32055 18.4645 2.27601C13.3538 2.23167 7.72332 4.55883 1.7147 10.6992L0.285236 9.30041Z" fill="#AC3235"/>
</svg>
