<svg width="16" height="16" viewBox="0 0 16 16" fill="none" xmlns="http://www.w3.org/2000/svg">
<path fill-rule="evenodd" clip-rule="evenodd" d="M16 2.28571C16 1.025 14.975 0 13.7143 0H2.28571C1.025 0 0 1.025 0 2.28571V13.7143C0 14.975 1.025 16 2.28571 16H13.7143C14.975 16 16 14.975 16 13.7143V2.28571ZM4.85912 4.85748C4.85912 4.38229 5.24135 4 5.71645 4H11.1427C11.6178 4 12 4.38229 12 4.85748V10.574C12 11.0492 11.6178 11.4315 11.1427 11.4315C10.6676 11.4315 10.2853 11.0492 10.2853 10.574V6.92614L5.46283 11.7495C5.13061 12.0853 4.58763 12.0817 4.25184 11.7495C3.91605 11.4172 3.91605 10.8741 4.25184 10.5383L9.07792 5.71496H5.71645C5.24135 5.71496 4.85912 5.33266 4.85912 4.85748Z" fill="#0729C8"/>
</svg>
