<svg width="2560" height="1280" viewBox="0 0 2560 1280" fill="none" xmlns="http://www.w3.org/2000/svg">
<g clip-path="url(#clip0_207_156)">
<g filter="url(#filter0_b_207_156)">
<path d="M0 0V1061H2560V0H0Z" fill="black" fill-opacity="0.01"/>
</g>
<path d="M0 0V1316H2560V0H0Z" fill="#F9F9F7"/>
<g clip-path="url(#clip1_207_156)">
<path d="M0 32.5L2560 32.5" stroke="#AEDAD5" stroke-opacity="0.6" stroke-width="2"/>
<path d="M0 0.5L2560 0.5" stroke="#AEDAD5" stroke-opacity="0.6" stroke-width="2"/>
<path d="M0 64.5L2560 64.5" stroke="#AEDAD5" stroke-opacity="0.6" stroke-width="2"/>
<path d="M0 96.5L2560 96.5" stroke="#AEDAD5" stroke-opacity="0.6" stroke-width="2"/>
<path d="M0 128.5L2560 128.5" stroke="#AEDAD5" stroke-opacity="0.6" stroke-width="2"/>
<path d="M0 160.5L2560 160.5" stroke="#AEDAD5" stroke-opacity="0.6" stroke-width="2"/>
<path d="M0 192.5L2560 192.5" stroke="#AEDAD5" stroke-opacity="0.6" stroke-width="2"/>
<path d="M0 224.5L2560 224.5" stroke="#AEDAD5" stroke-opacity="0.6" stroke-width="2"/>
<path d="M0 256.5L2560 256.5" stroke="#AEDAD5" stroke-opacity="0.6" stroke-width="2"/>
<path d="M0 256.5L2560 256.5" stroke="#AEDAD5" stroke-opacity="0.6" stroke-width="2"/>
<path d="M0 288.5L2560 288.5" stroke="#AEDAD5" stroke-opacity="0.6" stroke-width="2"/>
<path d="M0 320.5L2560 320.5" stroke="#AEDAD5" stroke-opacity="0.6" stroke-width="2"/>
<path d="M0 352.5L2560 352.5" stroke="#AEDAD5" stroke-opacity="0.6" stroke-width="2"/>
<path d="M0 384.5L2560 384.5" stroke="#AEDAD5" stroke-opacity="0.6" stroke-width="2"/>
<path d="M0 416.5L2560 416.5" stroke="#AEDAD5" stroke-opacity="0.6" stroke-width="2"/>
<path d="M0 448.5L2560 448.5" stroke="#AEDAD5" stroke-opacity="0.6" stroke-width="2"/>
<path d="M0 480.5L2560 480.5" stroke="#AEDAD5" stroke-opacity="0.6" stroke-width="2"/>
<path d="M0 480.5L2560 480.5" stroke="#AEDAD5" stroke-opacity="0.6" stroke-width="2"/>
<path d="M0 512.5L2560 512.5" stroke="#AEDAD5" stroke-opacity="0.6" stroke-width="2"/>
<path d="M0 544.5L2560 544.5" stroke="#AEDAD5" stroke-opacity="0.6" stroke-width="2"/>
<path d="M0 576.5L2560 576.5" stroke="#AEDAD5" stroke-opacity="0.6" stroke-width="2"/>
<path d="M0 608.5L2560 608.5" stroke="#AEDAD5" stroke-opacity="0.6" stroke-width="2"/>
<path d="M0 640.5L2560 640.5" stroke="#AEDAD5" stroke-opacity="0.6" stroke-width="2"/>
<path d="M0 672.5L2560 672.5" stroke="#AEDAD5" stroke-opacity="0.6" stroke-width="2"/>
<path d="M0 704.5L2560 704.5" stroke="#AEDAD5" stroke-opacity="0.6" stroke-width="2"/>
<path d="M0 704.5L2560 704.5" stroke="#AEDAD5" stroke-opacity="0.6" stroke-width="2"/>
<path d="M0 736.5L2560 736.5" stroke="#AEDAD5" stroke-opacity="0.6" stroke-width="2"/>
<path d="M0 768.5L2560 768.5" stroke="#AEDAD5" stroke-opacity="0.6" stroke-width="2"/>
<path d="M0 800.5L2560 800.5" stroke="#AEDAD5" stroke-opacity="0.6" stroke-width="2"/>
</g>
<g clip-path="url(#clip2_207_156)">
<path d="M0 832.5L2560 832.5" stroke="#AEDAD5" stroke-opacity="0.6" stroke-width="2"/>
<path d="M0 800.5L2560 800.5" stroke="#AEDAD5" stroke-opacity="0.6" stroke-width="2"/>
<path d="M0 864.5L2560 864.5" stroke="#AEDAD5" stroke-opacity="0.6" stroke-width="2"/>
<path d="M0 896.5L2560 896.5" stroke="#AEDAD5" stroke-opacity="0.6" stroke-width="2"/>
<path d="M0 928.5L2560 928.5" stroke="#AEDAD5" stroke-opacity="0.6" stroke-width="2"/>
<path d="M0 960.5L2560 960.5" stroke="#AEDAD5" stroke-opacity="0.6" stroke-width="2"/>
<path d="M0 992.5L2560 992.5" stroke="#AEDAD5" stroke-opacity="0.6" stroke-width="2"/>
<path d="M0 1024.5L2560 1024.5" stroke="#AEDAD5" stroke-opacity="0.6" stroke-width="2"/>
<path d="M0 1056.5L2560 1056.5" stroke="#AEDAD5" stroke-opacity="0.6" stroke-width="2"/>
<path d="M0 1056.5L2560 1056.5" stroke="#AEDAD5" stroke-opacity="0.6" stroke-width="2"/>
<path d="M0 1088.5L2560 1088.5" stroke="#AEDAD5" stroke-opacity="0.6" stroke-width="2"/>
<path d="M0 1120.5L2560 1120.5" stroke="#AEDAD5" stroke-opacity="0.6" stroke-width="2"/>
<path d="M0 1152.5L2560 1152.5" stroke="#AEDAD5" stroke-opacity="0.6" stroke-width="2"/>
<path d="M0 1184.5L2560 1184.5" stroke="#AEDAD5" stroke-opacity="0.6" stroke-width="2"/>
<path d="M0 1216.5L2560 1216.5" stroke="#AEDAD5" stroke-opacity="0.6" stroke-width="2"/>
<path d="M0 1248.5L2560 1248.5" stroke="#AEDAD5" stroke-opacity="0.6" stroke-width="2"/>
<path d="M0 1280.5L2560 1280.5" stroke="#AEDAD5" stroke-opacity="0.6" stroke-width="2"/>
<path d="M0 1280.5L2560 1280.5" stroke="#AEDAD5" stroke-opacity="0.6" stroke-width="2"/>
</g>
<g filter="url(#filter1_f_207_156)">
<path d="M95 1324.53L95 4.00543e-05" stroke="#D42402" stroke-width="2"/>
</g>
</g>
<defs>
<filter id="filter0_b_207_156" x="-0.67957" y="-0.67957" width="2561.36" height="1062.36" filterUnits="userSpaceOnUse" color-interpolation-filters="sRGB">
<feFlood flood-opacity="0" result="BackgroundImageFix"/>
<feGaussianBlur in="BackgroundImageFix" stdDeviation="0.339785"/>
<feComposite in2="SourceAlpha" operator="in" result="effect1_backgroundBlur_207_156"/>
<feBlend mode="normal" in="SourceGraphic" in2="effect1_backgroundBlur_207_156" result="shape"/>
</filter>
<filter id="filter1_f_207_156" x="92.7768" y="-1.22323" width="4.44645" height="1326.98" filterUnits="userSpaceOnUse" color-interpolation-filters="sRGB">
<feFlood flood-opacity="0" result="BackgroundImageFix"/>
<feBlend mode="normal" in="SourceGraphic" in2="BackgroundImageFix" result="shape"/>
<feGaussianBlur stdDeviation="0.611613" result="effect1_foregroundBlur_207_156"/>
</filter>
<clipPath id="clip0_207_156">
<rect width="2560" height="1280" fill="white"/>
</clipPath>
<clipPath id="clip1_207_156">
<rect width="2560" height="800" fill="white"/>
</clipPath>
<clipPath id="clip2_207_156">
<rect width="2560" height="515" fill="white" transform="translate(0 800)"/>
</clipPath>
</defs>
</svg>
