<svg width="401" height="241" viewBox="0 0 401 241" fill="none" xmlns="http://www.w3.org/2000/svg">
<path d="M400.401 0.950806L0.400574 0.950806L0.400574 240.951H400.401V0.950806Z" fill="white"/>
<path d="M0.400574 39.9748L400.577 39.9748Z" fill="#BDE5E3"/>
<path d="M0.400574 39.9748L400.577 39.9748" stroke="#E92A10"/>
<path d="M0.400574 60.1348L400.577 60.1348Z" fill="#BDE5E3"/>
<path d="M0.400574 60.1348L400.577 60.1348" stroke="#BDE5E3"/>
<path d="M0.400574 80.2868L400.577 80.2868Z" fill="#BDE5E3"/>
<path d="M0.400574 80.2868L400.577 80.2868" stroke="#BDE5E3"/>
<path d="M0.400574 100.447L400.577 100.447Z" fill="#BDE5E3"/>
<path d="M0.400574 100.447L400.577 100.447" stroke="#BDE5E3"/>
<path d="M0.400574 120.607L400.577 120.607Z" fill="#BDE5E3"/>
<path d="M0.400574 120.607L400.577 120.607" stroke="#BDE5E3"/>
<path d="M0.400574 140.759H400.577Z" fill="#BDE5E3"/>
<path d="M0.400574 140.759H400.577" stroke="#BDE5E3"/>
<path d="M0.400574 160.919H400.577Z" fill="#BDE5E3"/>
<path d="M0.400574 160.919H400.577" stroke="#BDE5E3"/>
<path d="M0.400574 181.071H400.577Z" fill="#BDE5E3"/>
<path d="M0.400574 181.071H400.577" stroke="#BDE5E3"/>
<path d="M0.400574 201.223H400.577Z" fill="#BDE5E3"/>
<path d="M0.400574 201.223H400.577" stroke="#BDE5E3"/>
<path d="M0.400574 221.383H400.577Z" fill="#BDE5E3"/>
<path d="M0.400574 221.383H400.577" stroke="#BDE5E3"/>
</svg>
