<svg width="813" height="973" viewBox="0 0 813 973" fill="none" xmlns="http://www.w3.org/2000/svg">
<rect y="33.3134" width="773" height="940" rx="29" transform="rotate(-2.47 0 33.3134)" fill="#F9F9F7"/>
<path d="M5.4732 160.195L777.755 126.882M4.09412 128.225L776.376 94.9117M6.85228 192.166L779.134 158.852M8.23136 224.136L780.513 190.823M9.61044 256.106L781.892 222.793M10.9895 288.077L783.271 254.763M12.3686 320.047L784.65 286.733M13.7477 352.017L786.03 318.704M15.1268 383.987L787.409 350.674M16.5058 415.958L788.788 382.644M17.8849 447.928L790.167 414.614M19.264 479.898L791.546 446.585M20.6431 511.868L792.925 478.555M22.0222 543.839L794.304 510.525M23.4013 575.809L795.683 542.495M24.7803 607.779L797.062 574.466M26.1594 639.749L798.441 606.436M27.5385 671.72L799.82 638.406M28.9176 703.69L801.199 670.377M30.2967 735.66L802.578 702.347M31.6757 767.631L803.958 734.317M33.0548 799.601L805.337 766.287M34.4339 831.571L806.716 798.258M35.813 863.541L808.095 830.228M37.1921 895.512L809.474 862.198M38.5711 927.482L810.853 894.169" stroke="#AEDAD5" stroke-opacity="0.6" stroke-width="2"/>
<g filter="url(#filter0_f_6_188)">
<line x1="135.422" y1="968.346" x2="94.9117" y2="29.2193" stroke="#D42402" stroke-width="2"/>
</g>
<defs>
<filter id="filter0_f_6_188" x="93.0126" y="28.2762" width="44.3087" height="941.013" filterUnits="userSpaceOnUse" color-interpolation-filters="sRGB">
<feFlood flood-opacity="0" result="BackgroundImageFix"/>
<feBlend mode="normal" in="SourceGraphic" in2="BackgroundImageFix" result="shape"/>
<feGaussianBlur stdDeviation="0.45" result="effect1_foregroundBlur_6_188"/>
</filter>
</defs>
</svg>
