<svg width="1216" height="1315" viewBox="0 0 1216 1315" fill="none" xmlns="http://www.w3.org/2000/svg">
<g clip-path="url(#clip0_201_75)">
<g filter="url(#filter0_b_201_75)">
<path d="M0 0V1061H1216V0H0Z" fill="black" fill-opacity="0.01"/>
</g>
<path d="M0 0V1316H1216V0H0Z" fill="#F9F9F7"/>
<g clip-path="url(#clip1_201_75)">
<path d="M0 32.5L1216 32.5" stroke="#AEDAD5" stroke-opacity="0.6" stroke-width="2"/>
<path d="M0 0.5L1216 0.5" stroke="#AEDAD5" stroke-opacity="0.6" stroke-width="2"/>
<path d="M0 64.5L1216 64.5" stroke="#AEDAD5" stroke-opacity="0.6" stroke-width="2"/>
<path d="M0 96.5L1216 96.5" stroke="#AEDAD5" stroke-opacity="0.6" stroke-width="2"/>
<path d="M0 128.5L1216 128.5" stroke="#AEDAD5" stroke-opacity="0.6" stroke-width="2"/>
<path d="M0 160.5L1216 160.5" stroke="#AEDAD5" stroke-opacity="0.6" stroke-width="2"/>
<path d="M0 192.5L1216 192.5" stroke="#AEDAD5" stroke-opacity="0.6" stroke-width="2"/>
<path d="M0 224.5L1216 224.5" stroke="#AEDAD5" stroke-opacity="0.6" stroke-width="2"/>
<path d="M0 256.5L1216 256.5" stroke="#AEDAD5" stroke-opacity="0.6" stroke-width="2"/>
<path d="M0 256.5L1216 256.5" stroke="#AEDAD5" stroke-opacity="0.6" stroke-width="2"/>
<path d="M0 288.5L1216 288.5" stroke="#AEDAD5" stroke-opacity="0.6" stroke-width="2"/>
<path d="M0 320.5L1216 320.5" stroke="#AEDAD5" stroke-opacity="0.6" stroke-width="2"/>
<path d="M0 352.5L1216 352.5" stroke="#AEDAD5" stroke-opacity="0.6" stroke-width="2"/>
<path d="M0 384.5L1216 384.5" stroke="#AEDAD5" stroke-opacity="0.6" stroke-width="2"/>
<path d="M0 416.5L1216 416.5" stroke="#AEDAD5" stroke-opacity="0.6" stroke-width="2"/>
<path d="M0 448.5L1216 448.5" stroke="#AEDAD5" stroke-opacity="0.6" stroke-width="2"/>
<path d="M0 480.5L1216 480.5" stroke="#AEDAD5" stroke-opacity="0.6" stroke-width="2"/>
<path d="M0 480.5L1216 480.5" stroke="#AEDAD5" stroke-opacity="0.6" stroke-width="2"/>
<path d="M0 512.5L1216 512.5" stroke="#AEDAD5" stroke-opacity="0.6" stroke-width="2"/>
<path d="M0 544.5L1216 544.5" stroke="#AEDAD5" stroke-opacity="0.6" stroke-width="2"/>
<path d="M0 576.5L1216 576.5" stroke="#AEDAD5" stroke-opacity="0.6" stroke-width="2"/>
<path d="M0 608.5L1216 608.5" stroke="#AEDAD5" stroke-opacity="0.6" stroke-width="2"/>
<path d="M0 640.5L1216 640.5" stroke="#AEDAD5" stroke-opacity="0.6" stroke-width="2"/>
<path d="M0 672.5L1216 672.5" stroke="#AEDAD5" stroke-opacity="0.6" stroke-width="2"/>
<path d="M0 704.5L1216 704.5" stroke="#AEDAD5" stroke-opacity="0.6" stroke-width="2"/>
<path d="M0 704.5L1216 704.5" stroke="#AEDAD5" stroke-opacity="0.6" stroke-width="2"/>
<path d="M0 736.5L1216 736.5" stroke="#AEDAD5" stroke-opacity="0.6" stroke-width="2"/>
<path d="M0 768.5L1216 768.5" stroke="#AEDAD5" stroke-opacity="0.6" stroke-width="2"/>
<path d="M0 800.5L1216 800.5" stroke="#AEDAD5" stroke-opacity="0.6" stroke-width="2"/>
</g>
<g clip-path="url(#clip2_201_75)">
<path d="M0 832.5L1216 832.5" stroke="#AEDAD5" stroke-opacity="0.6" stroke-width="2"/>
<path d="M0 800.5L1216 800.5" stroke="#AEDAD5" stroke-opacity="0.6" stroke-width="2"/>
<path d="M0 864.5L1216 864.5" stroke="#AEDAD5" stroke-opacity="0.6" stroke-width="2"/>
<path d="M0 896.5L1216 896.5" stroke="#AEDAD5" stroke-opacity="0.6" stroke-width="2"/>
<path d="M0 928.5L1216 928.5" stroke="#AEDAD5" stroke-opacity="0.6" stroke-width="2"/>
<path d="M0 960.5L1216 960.5" stroke="#AEDAD5" stroke-opacity="0.6" stroke-width="2"/>
<path d="M0 992.5L1216 992.5" stroke="#AEDAD5" stroke-opacity="0.6" stroke-width="2"/>
<path d="M0 1024.5L1216 1024.5" stroke="#AEDAD5" stroke-opacity="0.6" stroke-width="2"/>
<path d="M0 1056.5L1216 1056.5" stroke="#AEDAD5" stroke-opacity="0.6" stroke-width="2"/>
<path d="M0 1056.5L1216 1056.5" stroke="#AEDAD5" stroke-opacity="0.6" stroke-width="2"/>
<path d="M0 1088.5L1216 1088.5" stroke="#AEDAD5" stroke-opacity="0.6" stroke-width="2"/>
<path d="M0 1120.5L1216 1120.5" stroke="#AEDAD5" stroke-opacity="0.6" stroke-width="2"/>
<path d="M0 1152.5L1216 1152.5" stroke="#AEDAD5" stroke-opacity="0.6" stroke-width="2"/>
<path d="M0 1184.5L1216 1184.5" stroke="#AEDAD5" stroke-opacity="0.6" stroke-width="2"/>
<path d="M0 1216.5L1216 1216.5" stroke="#AEDAD5" stroke-opacity="0.6" stroke-width="2"/>
<path d="M0 1248.5L1216 1248.5" stroke="#AEDAD5" stroke-opacity="0.6" stroke-width="2"/>
<path d="M0 1280.5L1216 1280.5" stroke="#AEDAD5" stroke-opacity="0.6" stroke-width="2"/>
<path d="M0 1280.5L1216 1280.5" stroke="#AEDAD5" stroke-opacity="0.6" stroke-width="2"/>
<path d="M0 1312.5L1216 1312.5" stroke="#AEDAD5" stroke-opacity="0.6" stroke-width="2"/>
</g>
<g filter="url(#filter1_f_201_75)">
<path d="M95 1324.53L95 4.00543e-05" stroke="#D42402" stroke-width="2"/>
</g>
</g>
<defs>
<filter id="filter0_b_201_75" x="-0.67957" y="-0.67957" width="1217.36" height="1062.36" filterUnits="userSpaceOnUse" color-interpolation-filters="sRGB">
<feFlood flood-opacity="0" result="BackgroundImageFix"/>
<feGaussianBlur in="BackgroundImageFix" stdDeviation="0.339785"/>
<feComposite in2="SourceAlpha" operator="in" result="effect1_backgroundBlur_201_75"/>
<feBlend mode="normal" in="SourceGraphic" in2="effect1_backgroundBlur_201_75" result="shape"/>
</filter>
<filter id="filter1_f_201_75" x="92.7768" y="-1.22317" width="4.44645" height="1326.98" filterUnits="userSpaceOnUse" color-interpolation-filters="sRGB">
<feFlood flood-opacity="0" result="BackgroundImageFix"/>
<feBlend mode="normal" in="SourceGraphic" in2="BackgroundImageFix" result="shape"/>
<feGaussianBlur stdDeviation="0.611613" result="effect1_foregroundBlur_201_75"/>
</filter>
<clipPath id="clip0_201_75">
<rect width="1216" height="1315" fill="white"/>
</clipPath>
<clipPath id="clip1_201_75">
<rect width="1216" height="800" fill="white"/>
</clipPath>
<clipPath id="clip2_201_75">
<rect width="1216" height="512" fill="white" transform="translate(0 800)"/>
</clipPath>
</defs>
</svg>
