<svg width="1216" height="1694" viewBox="0 0 1216 1694" fill="none" xmlns="http://www.w3.org/2000/svg">
<g clip-path="url(#clip0_34_2)">
<rect width="1216" height="1694" fill="white"/>
<g filter="url(#filter0_b_34_2)">
<path d="M0 0V1693H1216V0H0Z" fill="black" fill-opacity="0.01"/>
</g>
<g clip-path="url(#clip1_34_2)">
<path d="M0 124.5L1216 124.5" stroke="#AEDAD5" stroke-opacity="0.6" stroke-width="2"/>
<path d="M0 92.5L1216 92.5" stroke="#AEDAD5" stroke-opacity="0.6" stroke-width="2"/>
<path d="M0 156.5L1216 156.5" stroke="#AEDAD5" stroke-opacity="0.6" stroke-width="2"/>
<path d="M0 188.5L1216 188.5" stroke="#AEDAD5" stroke-opacity="0.6" stroke-width="2"/>
<path d="M0 220.5L1216 220.5" stroke="#AEDAD5" stroke-opacity="0.6" stroke-width="2"/>
<path d="M0 252.5L1216 252.5" stroke="#AEDAD5" stroke-opacity="0.6" stroke-width="2"/>
<path d="M0 284.5L1216 284.5" stroke="#AEDAD5" stroke-opacity="0.6" stroke-width="2"/>
<path d="M0 316.5L1216 316.5" stroke="#AEDAD5" stroke-opacity="0.6" stroke-width="2"/>
<path d="M0 348.5L1216 348.5" stroke="#AEDAD5" stroke-opacity="0.6" stroke-width="2"/>
<path d="M0 348.5L1216 348.5" stroke="#AEDAD5" stroke-opacity="0.6" stroke-width="2"/>
<path d="M0 380.5L1216 380.5" stroke="#AEDAD5" stroke-opacity="0.6" stroke-width="2"/>
<path d="M0 412.5L1216 412.5" stroke="#AEDAD5" stroke-opacity="0.6" stroke-width="2"/>
<path d="M0 444.5L1216 444.5" stroke="#AEDAD5" stroke-opacity="0.6" stroke-width="2"/>
<path d="M0 476.5L1216 476.5" stroke="#AEDAD5" stroke-opacity="0.6" stroke-width="2"/>
<path d="M0 508.5L1216 508.5" stroke="#AEDAD5" stroke-opacity="0.6" stroke-width="2"/>
<path d="M0 540.5L1216 540.5" stroke="#AEDAD5" stroke-opacity="0.6" stroke-width="2"/>
<path d="M0 572.5L1216 572.5" stroke="#AEDAD5" stroke-opacity="0.6" stroke-width="2"/>
<path d="M0 572.5L1216 572.5" stroke="#AEDAD5" stroke-opacity="0.6" stroke-width="2"/>
<path d="M0 604.5L1216 604.5" stroke="#AEDAD5" stroke-opacity="0.6" stroke-width="2"/>
<path d="M0 636.5L1216 636.5" stroke="#AEDAD5" stroke-opacity="0.6" stroke-width="2"/>
<path d="M0 668.5L1216 668.5" stroke="#AEDAD5" stroke-opacity="0.6" stroke-width="2"/>
<path d="M0 700.5L1216 700.5" stroke="#AEDAD5" stroke-opacity="0.6" stroke-width="2"/>
<path d="M0 732.5L1216 732.5" stroke="#AEDAD5" stroke-opacity="0.6" stroke-width="2"/>
<path d="M0 764.5L1216 764.5" stroke="#AEDAD5" stroke-opacity="0.6" stroke-width="2"/>
<path d="M0 796.5L1216 796.5" stroke="#AEDAD5" stroke-opacity="0.6" stroke-width="2"/>
<path d="M0 796.5L1216 796.5" stroke="#AEDAD5" stroke-opacity="0.6" stroke-width="2"/>
<path d="M0 828.5L1216 828.5" stroke="#AEDAD5" stroke-opacity="0.6" stroke-width="2"/>
<path d="M0 860.5L1216 860.5" stroke="#AEDAD5" stroke-opacity="0.6" stroke-width="2"/>
<path d="M0 892.5L1216 892.5" stroke="#AEDAD5" stroke-opacity="0.6" stroke-width="2"/>
</g>
<g clip-path="url(#clip2_34_2)">
<path d="M0 924.5L1216 924.5" stroke="#AEDAD5" stroke-opacity="0.6" stroke-width="2"/>
<path d="M0 956.5L1216 956.5" stroke="#AEDAD5" stroke-opacity="0.6" stroke-width="2"/>
<path d="M0 988.5L1216 988.5" stroke="#AEDAD5" stroke-opacity="0.6" stroke-width="2"/>
<path d="M0 1020.5L1216 1020.5" stroke="#AEDAD5" stroke-opacity="0.6" stroke-width="2"/>
<path d="M0 1052.5L1216 1052.5" stroke="#AEDAD5" stroke-opacity="0.6" stroke-width="2"/>
<path d="M0 1084.5L1216 1084.5" stroke="#AEDAD5" stroke-opacity="0.6" stroke-width="2"/>
<path d="M0 1116.5L1216 1116.5" stroke="#AEDAD5" stroke-opacity="0.6" stroke-width="2"/>
<path d="M0 1148.5L1216 1148.5" stroke="#AEDAD5" stroke-opacity="0.6" stroke-width="2"/>
<path d="M0 1148.5L1216 1148.5" stroke="#AEDAD5" stroke-opacity="0.6" stroke-width="2"/>
<path d="M0 1180.5L1216 1180.5" stroke="#AEDAD5" stroke-opacity="0.6" stroke-width="2"/>
<path d="M0 1212.5L1216 1212.5" stroke="#AEDAD5" stroke-opacity="0.6" stroke-width="2"/>
<path d="M0 1244.5L1216 1244.5" stroke="#AEDAD5" stroke-opacity="0.6" stroke-width="2"/>
<path d="M0 1276.5L1216 1276.5" stroke="#AEDAD5" stroke-opacity="0.6" stroke-width="2"/>
<path d="M0 1308.5L1216 1308.5" stroke="#AEDAD5" stroke-opacity="0.6" stroke-width="2"/>
<path d="M0 1340.5L1216 1340.5" stroke="#AEDAD5" stroke-opacity="0.6" stroke-width="2"/>
<path d="M0 1372.5L1216 1372.5" stroke="#AEDAD5" stroke-opacity="0.6" stroke-width="2"/>
<path d="M0 1372.5L1216 1372.5" stroke="#AEDAD5" stroke-opacity="0.6" stroke-width="2"/>
<path d="M0 1404.5L1216 1404.5" stroke="#AEDAD5" stroke-opacity="0.6" stroke-width="2"/>
<path d="M0 1436.5L1216 1436.5" stroke="#AEDAD5" stroke-opacity="0.6" stroke-width="2"/>
<path d="M0 1468.5L1216 1468.5" stroke="#AEDAD5" stroke-opacity="0.6" stroke-width="2"/>
<path d="M0 1500.5L1216 1500.5" stroke="#AEDAD5" stroke-opacity="0.6" stroke-width="2"/>
<path d="M0 1532.5L1216 1532.5" stroke="#AEDAD5" stroke-opacity="0.6" stroke-width="2"/>
<path d="M0 1564.5L1216 1564.5" stroke="#AEDAD5" stroke-opacity="0.6" stroke-width="2"/>
<path d="M0 1596.5L1216 1596.5" stroke="#AEDAD5" stroke-opacity="0.6" stroke-width="2"/>
<path d="M0 1596.5L1216 1596.5" stroke="#AEDAD5" stroke-opacity="0.6" stroke-width="2"/>
<path d="M0 1628.5L1216 1628.5" stroke="#AEDAD5" stroke-opacity="0.6" stroke-width="2"/>
<path d="M0 1660.5L1216 1660.5" stroke="#AEDAD5" stroke-opacity="0.6" stroke-width="2"/>
<path d="M0 1692.5L1216 1692.5" stroke="#AEDAD5" stroke-opacity="0.6" stroke-width="2"/>
</g>
<g filter="url(#filter1_f_34_2)">
<path d="M95 1693.41L95 -6.29425e-05" stroke="#D42402" stroke-width="2"/>
</g>
</g>
<defs>
<filter id="filter0_b_34_2" x="-0.67957" y="-0.67957" width="1217.36" height="1694.36" filterUnits="userSpaceOnUse" color-interpolation-filters="sRGB">
<feFlood flood-opacity="0" result="BackgroundImageFix"/>
<feGaussianBlur in="BackgroundImageFix" stdDeviation="0.339785"/>
<feComposite in2="SourceAlpha" operator="in" result="effect1_backgroundBlur_34_2"/>
<feBlend mode="normal" in="SourceGraphic" in2="effect1_backgroundBlur_34_2" result="shape"/>
</filter>
<filter id="filter1_f_34_2" x="92.7768" y="-1.22329" width="4.44645" height="1695.85" filterUnits="userSpaceOnUse" color-interpolation-filters="sRGB">
<feFlood flood-opacity="0" result="BackgroundImageFix"/>
<feBlend mode="normal" in="SourceGraphic" in2="BackgroundImageFix" result="shape"/>
<feGaussianBlur stdDeviation="0.611613" result="effect1_foregroundBlur_34_2"/>
</filter>
<clipPath id="clip0_34_2">
<rect width="1216" height="1694" fill="white"/>
</clipPath>
<clipPath id="clip1_34_2">
<rect width="1216" height="1602" fill="white" transform="translate(0 92)"/>
</clipPath>
<clipPath id="clip2_34_2">
<rect width="1216" height="800" fill="white" transform="translate(0 892)"/>
</clipPath>
</defs>
</svg>
